# xmcd CD database file generated by Grip 2.95
# 
# Track frame offsets:
#       150
#       13432
#       27662
#       43092
#       66090
#       87702
#       100792
#       126687
#       146072
#       159327
#       172300
#       182047
#       196650
#       214085
#       231047
#       245040
#       262980
#       278637
#       293952
#       308902
# 
# Disc length: 4367 seconds
# 
# Revision: 3
# Processed by: cddbd v1.4PL0 Copyright (c) Steve Scherf et al.
# Submitted via: Grip 2.95
# 
DISCID=39110d14
DTITLE=Pave Maijanen - Pave's Mistakes and Pid‰ huolta
DYEAR=1900
DGENRE=
TTITLE0=Crowd of Nonsense
TTITLE1=Mistakes
TTITLE2=Coward
TTITLE3=10 Years Boogie
TTITLE4=And the Mother Loves the Child
TTITLE5=Good Night
TTITLE6=Raining Again
TTITLE7=Cafe on the Road
TTITLE8=Going On With My Badself
TTITLE9=Pid‰ huolta
TTITLE10=Ei mit‰‰n
TTITLE11=M‰ haluun olla m‰
TTITLE12=TV-mies
TTITLE13=Hei hei!?
TTITLE14=Ihminen hallitsee OK
TTITLE15=Roll It Up
TTITLE16=Maybe
TTITLE17=Can't See Nobody
TTITLE18=We're Going Away
TTITLE19=Tell Me It's Alright
EXTD=
EXTT0=
EXTT1=
EXTT2=
EXTT3=
EXTT4=
EXTT5=
EXTT6=
EXTT7=
EXTT8=
EXTT9=
EXTT10=
EXTT11=
EXTT12=
EXTT13=
EXTT14=
EXTT15=
EXTT16=
EXTT17=
EXTT18=
EXTT19=
PLAYORDER=
